<?xml version="1.0" standalone="no"?>
<!DOCTYPE svg PUBLIC "-//W3C//DTD SVG 20010904//EN"
 "http://www.w3.org/TR/2001/REC-SVG-20010904/DTD/svg10.dtd">
<svg version="1.0" xmlns="http://www.w3.org/2000/svg"
 width="400.000000pt" height="400.000000pt" viewBox="0 0 400.000000 400.000000"
 preserveAspectRatio="xMidYMid meet">
<metadata>
Created by potrace 1.11, written by Peter Selinger 2001-2013
</metadata>
<g transform="translate(0.000000,400.000000) scale(0.100000,-0.100000)"
fill="#000000" stroke="none">
<path d="M1895 2946 c-242 -38 -466 -179 -605 -381 -158 -229 -193 -557 -90
-823 63 -163 192 -325 332 -418 170 -113 399 -169 596 -145 195 24 357 95 497
219 l38 34 -146 146 -145 145 -38 -33 c-52 -45 -129 -79 -224 -97 -72 -15 -88
-15 -158 -1 -109 22 -186 61 -257 133 -96 96 -145 211 -145 340 0 129 49 243
145 341 106 107 255 157 403 135 88 -13 181 -53 236 -101 l37 -33 145 144 145
144 -57 52 c-111 100 -290 179 -457 202 -96 13 -149 13 -252 -3z"/>
<path d="M30 2060 l0 -890 530 0 530 0 0 205 0 205 -325 0 -325 0 0 685 0 685
-205 0 -205 0 0 -890z"/>
<path d="M2790 1375 l0 -205 585 0 585 0 0 205 0 205 -585 0 -585 0 0 -205z"/>
</g>
</svg>
