<?xml version="1.0" standalone="no"?>
<!DOCTYPE svg PUBLIC "-//W3C//DTD SVG 20010904//EN"
 "http://www.w3.org/TR/2001/REC-SVG-20010904/DTD/svg10.dtd">
<svg version="1.0" xmlns="http://www.w3.org/2000/svg"
 width="400.000000pt" height="400.000000pt" viewBox="0 0 400.000000 400.000000"
 preserveAspectRatio="xMidYMid meet">
<metadata>
Created by potrace 1.11, written by Peter Selinger 2001-2013
</metadata>
<g transform="translate(0.000000,400.000000) scale(0.100000,-0.100000)"
fill="#000000" stroke="none">
<path d="M2015 3670 c-16 -5 -106 -48 -200 -96 -93 -47 -388 -196 -655 -330
-309 -155 -498 -257 -522 -279 -20 -18 -49 -56 -65 -82 l-28 -48 -2 -793 c-3
-689 -1 -803 13 -870 24 -120 68 -193 145 -239 19 -11 302 -155 629 -319 l594
-299 86 0 85 0 205 103 c113 57 410 207 661 333 250 126 465 240 478 253 14
15 25 42 28 68 9 86 20 79 -619 402 -317 160 -588 302 -602 315 -48 45 -57 89
-54 275 l3 168 610 308 c335 169 617 314 626 322 42 35 51 103 21 153 -15 24
-81 62 -328 187 -170 86 -448 227 -619 313 -308 156 -310 157 -385 161 -41 2
-88 -1 -105 -6z m-650 -1206 c432 -216 581 -286 615 -289 25 -2 45 -4 45 -4 0
-238 3 -301 19 -351 21 -63 66 -135 106 -168 28 -21 274 -149 832 -429 l276
-139 -608 -307 c-410 -207 -619 -307 -640 -307 -20 0 -130 50 -310 140 -639
320 -916 463 -937 482 -12 12 -30 44 -40 72 -15 46 -17 119 -19 776 -1 416 2
741 7 762 11 41 33 60 64 52 11 -3 277 -133 590 -290z"/>
</g>
</svg>
